<svg width="240" height="50" viewBox="0 0 240 50" fill="none" xmlns="http://www.w3.org/2000/svg">
<rect x="63" width="50" height="50" fill="#E21A43" fill-opacity="0.15"/>
<path d="M81.1396 15.056V16.816L82.8996 16.112V24H84.8676V13.408L81.1396 15.056ZM92.6005 20.688C92.5845 21.584 91.8965 22.272 91.0005 22.256C90.1365 22.256 89.4325 21.536 89.4325 20.64C89.4325 19.744 90.2005 19.072 91.0645 19.072C91.9605 19.072 92.6005 19.824 92.6005 20.688ZM91.3845 17.248C90.2805 17.248 89.4485 17.904 89.2725 18.432C89.1925 16.768 89.8005 15.184 91.3045 15.184C91.8645 15.184 92.3765 15.456 92.7125 16.144L94.5205 15.376C93.7845 13.776 92.5685 13.392 91.3685 13.344C87.5925 13.216 87.0485 17.28 87.3045 20.528C87.4805 22.752 89.0005 24.112 90.9045 24.16C93.0805 24.16 94.5685 22.784 94.6165 20.8C94.6165 18.56 93.0485 17.248 91.3845 17.248ZM78.5633 27.732H77.4353V31.38H73.4393V27.732H72.3233V36H73.4393V32.4H77.4353V36H78.5633V27.732ZM80.2794 31.884C80.2794 34.236 82.1034 36.12 84.4554 36.12C86.8194 36.12 88.6554 34.236 88.6554 31.884C88.6554 29.544 86.8194 27.636 84.4554 27.636C82.1034 27.636 80.2794 29.544 80.2794 31.884ZM81.3954 31.884C81.3954 30.12 82.7274 28.716 84.4554 28.716C86.1954 28.716 87.5274 30.12 87.5274 31.884C87.5274 33.648 86.1954 35.04 84.4554 35.04C82.7274 35.04 81.3954 33.648 81.3954 31.884ZM93.3102 35.04C92.2902 35.04 91.4142 34.308 91.4142 33.156V27.732H90.2862V33.156C90.2862 34.956 91.6662 36.12 93.3102 36.12C94.9302 36.12 96.3342 34.956 96.3342 33.156V27.732H95.2062V33.156C95.2062 34.308 94.3302 35.04 93.3102 35.04ZM101.971 32.868C103.519 32.736 104.131 31.548 104.131 30.324C104.131 29.028 103.423 27.732 101.683 27.732H98.503V36H99.631V32.904H100.687L102.823 36H104.179L101.971 32.868ZM101.647 28.776C102.607 28.776 102.979 29.568 102.979 30.324C102.979 31.092 102.607 31.86 101.599 31.86H99.631V28.776H101.647Z" fill="#E21A43"/>
<rect x="126" width="50" height="50" fill="#E21A43" fill-opacity="0.15"/>
<path d="M150.084 24V22.128H146.548L149.14 19.168C149.796 18.416 150.26 17.52 150.26 16.496C150.26 14.64 148.724 13.344 146.884 13.344C145.028 13.344 143.652 14.528 143.348 16.432L145.172 16.768C145.3 15.872 145.956 15.248 146.804 15.248C147.7 15.248 148.308 15.792 148.308 16.496C148.308 16.992 148.036 17.44 147.668 17.872L143.396 22.992V24H150.084ZM157.748 20.416C157.748 21.376 156.916 22.224 155.524 22.224C154.74 22.224 153.972 21.696 153.54 20.928C153.412 21.024 152.02 21.856 151.892 21.952C152.644 23.296 154.052 24.16 155.524 24.16C158.052 24.16 159.7 22.64 159.7 20.416C159.7 18.144 158.148 16.928 156.228 16.928C155.556 16.928 154.724 17.104 154.292 17.488L154.66 15.344H159.044V13.536H153.092L152.212 18.992L153.332 19.664C154.1 18.832 155.012 18.608 155.732 18.608C156.836 18.608 157.748 19.2 157.748 20.416ZM145.713 33.804L142.797 27.732H141.777L140.769 36H141.873L142.629 29.784L145.233 35.088H146.217L148.797 29.784L149.553 36H150.657L149.649 27.732H148.629L145.713 33.804ZM152.441 27.732V36H153.557V27.732H152.441ZM161.768 36V27.732H160.652V33.912L156.92 27.732H155.816V36H156.932V29.772L160.7 36H161.768Z" fill="#E21A43"/>
<rect x="190" width="50" height="50" fill="#E21A43" fill-opacity="0.15"/>
<path d="M207.905 15.056V16.816L209.665 16.112V24H211.633V13.408L207.905 15.056ZM214.038 18.768C214.038 21.76 214.886 24.16 217.926 24.16C220.95 24.16 221.766 21.76 221.766 18.768C221.766 15.76 220.95 13.344 217.926 13.344C214.886 13.344 214.038 15.76 214.038 18.768ZM216.006 18.768C216.006 16.848 216.422 15.264 217.926 15.264C219.398 15.264 219.814 16.848 219.814 18.768C219.814 20.688 219.398 22.24 217.926 22.24C216.422 22.24 216.006 20.688 216.006 18.768ZM204.696 33.612C204.696 34.908 205.908 36.12 207.588 36.12C209.22 36.12 210.192 35.16 210.348 33.96C210.528 32.628 209.688 31.764 208.14 31.368L207.06 31.104C206.016 30.852 205.884 30.312 205.884 29.952C205.884 29.196 206.616 28.704 207.432 28.704C208.344 28.704 208.992 29.232 208.992 30.06H210.108C210.108 28.572 208.944 27.636 207.444 27.636C206.04 27.636 204.768 28.572 204.768 29.964C204.768 30.684 205.02 31.68 206.784 32.124L207.852 32.388C208.596 32.556 209.316 32.976 209.256 33.864C209.16 34.488 208.644 35.076 207.588 35.076C206.544 35.076 205.812 34.332 205.812 33.612H204.696ZM218.019 33.984C217.455 34.644 216.651 35.04 215.727 35.04C213.987 35.04 212.655 33.648 212.655 31.884C212.655 30.12 213.987 28.716 215.727 28.716C216.639 28.716 217.431 29.124 217.995 29.736L218.835 29.04C218.103 28.176 217.011 27.636 215.727 27.636C213.387 27.636 211.539 29.544 211.539 31.884C211.539 34.236 213.387 36.12 215.727 36.12C217.023 36.12 218.127 35.568 218.859 34.692L218.019 33.984ZM220.271 27.732V36H225.287V34.956H221.387V32.46H224.687V31.416H221.387V28.776H225.167V27.732H220.271Z" fill="#E21A43"/>
<rect width="50" height="50" fill="#E21A43" fill-opacity="0.15"/>
<path d="M24.7608 19.344C26.1848 19.296 26.3928 20.416 26.3928 20.688C26.3928 21.6 25.6408 22.24 24.6328 22.24C23.9128 22.24 23.2408 21.696 22.9368 21.072C22.8088 21.152 21.3528 21.856 21.2248 21.936C21.7688 23.152 23.0488 24.064 24.4728 24.144C26.5208 24.272 28.2968 23.088 28.5048 21.168C28.6328 20.048 27.8488 18.736 26.7608 18.32C27.5128 17.888 28.0568 17.152 28.0568 16.272C28.0568 14.736 26.8248 13.424 25.0328 13.344C23.6728 13.264 22.4568 13.888 21.8648 14.896L23.4008 15.904C23.8328 15.376 24.3928 15.184 25.0168 15.264C25.7688 15.392 25.9448 16.08 25.9448 16.448C25.9448 16.736 25.7368 17.6 24.7608 17.6H23.6408V19.344H24.7608ZM17.8183 36C20.1703 36 21.5383 34.236 21.5383 31.884C21.5383 29.532 20.1703 27.732 17.8183 27.732H14.6143V36H17.8183ZM15.7303 34.956V28.776H17.8183C19.5343 28.776 20.4223 30.144 20.4223 31.884C20.4223 33.624 19.5343 34.956 17.8183 34.956H15.7303ZM24.5139 32.892L25.8819 29.22L27.2499 32.892H24.5139ZM27.6339 33.9L28.4379 36H29.6139L26.4819 27.732H25.2819L22.1379 36H23.3259L24.1299 33.9H27.6339ZM33.3225 36V32.196L36.4905 27.732H35.1465L32.7465 31.08L30.3705 27.732H29.0385L32.1705 32.196V36H33.3225Z" fill="#E21A43"/>
</svg>
