<svg width="200" height="74" viewBox="0 0 200 74" fill="none" xmlns="http://www.w3.org/2000/svg">
<g filter="url(#filter0_d_308_1058)">
<rect x="16.9999" y="13" width="166" height="40" fill="white"/>
</g>
<line x1="57.4999" y1="26" x2="57.4999" y2="41" stroke="#888888"/>
<line x1="97.4999" y1="26" x2="97.4999" y2="41" stroke="#888888"/>
<line x1="137.5" y1="26" x2="137.5" y2="41" stroke="#888888"/>
<path d="M155.861 23C160.752 23 164.722 26.9697 164.722 31.8609C164.722 36.7521 160.752 40.7218 155.861 40.7218C150.97 40.7218 147 36.7521 147 31.8609C147 26.9697 150.97 23 155.861 23ZM155.861 38.7527C159.668 38.7527 162.753 35.6681 162.753 31.8609C162.753 28.0527 159.668 24.9691 155.861 24.9691C152.053 24.9691 148.969 28.0527 148.969 31.8609C148.969 35.6681 152.053 38.7527 155.861 38.7527ZM164.215 38.8226L167 41.6069L165.607 43L162.823 40.2147L164.215 38.8226Z" fill="#333333"/>
<path d="M117.001 25.529C119.35 23.42 122.98 23.49 125.243 25.757C127.505 28.025 127.583 31.637 125.479 33.993L116.999 42.485L108.521 33.993C106.417 31.637 106.496 28.019 108.757 25.757C111.022 23.493 114.645 23.417 117.001 25.529ZM123.827 27.17C122.327 25.668 119.907 25.607 118.337 27.017L117.002 28.215L115.666 27.018C114.091 25.606 111.676 25.668 110.172 27.172C108.682 28.662 108.607 31.047 109.98 32.623L117 39.654L124.02 32.624C125.394 31.047 125.319 28.665 123.827 27.17Z" fill="#E21A43"/>
<path d="M70.4629 25.433C72.2774 23.8607 74.5989 22.9967 76.9999 23C82.5229 23 86.9999 27.477 86.9999 33C86.9999 35.136 86.3299 37.116 85.1899 38.74L81.9999 33H84.9999C85 31.4316 84.5391 29.8978 83.6745 28.5893C82.81 27.2807 81.5798 26.2552 80.1371 25.6401C78.6943 25.0251 77.1026 24.8477 75.5598 25.13C74.0171 25.4123 72.5913 26.1419 71.4599 27.228L70.4629 25.433ZM83.5369 40.567C81.7223 42.1393 79.4009 43.0034 76.9999 43C71.4769 43 66.9999 38.523 66.9999 33C66.9999 30.864 67.6699 28.884 68.8099 27.26L71.9999 33H68.9999C68.9997 34.5684 69.4606 36.1022 70.3252 37.4108C71.1898 38.7193 72.4199 39.7449 73.8627 40.3599C75.3055 40.9749 76.8972 41.1523 78.4399 40.87C79.9827 40.5877 81.4084 39.8581 82.5399 38.772L83.5369 40.567Z" fill="#333333"/>
<path d="M38.9999 32V26H40.9999V32H46.9999V34H40.9999V40H38.9999V34H32.9999V32H38.9999Z" fill="#333333"/>
<defs>
<filter id="filter0_d_308_1058" x="-0.00012207" y="0" width="200" height="74" filterUnits="userSpaceOnUse" color-interpolation-filters="sRGB">
<feFlood flood-opacity="0" result="BackgroundImageFix"/>
<feColorMatrix in="SourceAlpha" type="matrix" values="0 0 0 0 0 0 0 0 0 0 0 0 0 0 0 0 0 0 127 0" result="hardAlpha"/>
<feOffset dy="4"/>
<feGaussianBlur stdDeviation="8.5"/>
<feComposite in2="hardAlpha" operator="out"/>
<feColorMatrix type="matrix" values="0 0 0 0 0 0 0 0 0 0 0 0 0 0 0 0 0 0 0.1 0"/>
<feBlend mode="normal" in2="BackgroundImageFix" result="effect1_dropShadow_308_1058"/>
<feBlend mode="normal" in="SourceGraphic" in2="effect1_dropShadow_308_1058" result="shape"/>
</filter>
</defs>
</svg>
