<svg width="67" height="8" viewBox="0 0 67 8" fill="none" xmlns="http://www.w3.org/2000/svg">
<path d="M3.76224 0.731762C3.83707 0.501434 4.16293 0.501435 4.23776 0.731763L4.84193 2.59119C4.8754 2.69419 4.97139 2.76393 5.07969 2.76393H7.03481C7.27699 2.76393 7.37768 3.07384 7.18175 3.21619L5.60003 4.36537C5.51241 4.42903 5.47574 4.54188 5.50921 4.64488L6.11338 6.5043C6.18821 6.73463 5.92459 6.92616 5.72867 6.78381L4.14695 5.63463C4.05932 5.57097 3.94068 5.57097 3.85305 5.63463L2.27133 6.78381C2.0754 6.92616 1.81179 6.73463 1.88662 6.5043L2.49079 4.64488C2.52426 4.54188 2.48759 4.42903 2.39997 4.36537L0.818248 3.21619C0.622319 3.07384 0.723014 2.76393 0.965195 2.76393H2.92031C3.02861 2.76393 3.1246 2.69419 3.15807 2.59119L3.76224 0.731762Z" fill="#E21A43"/>
<path d="M13.7622 0.731762C13.8371 0.501434 14.1629 0.501435 14.2378 0.731763L14.8419 2.59119C14.8754 2.69419 14.9714 2.76393 15.0797 2.76393H17.0348C17.277 2.76393 17.3777 3.07384 17.1818 3.21619L15.6 4.36537C15.5124 4.42903 15.4757 4.54188 15.5092 4.64488L16.1134 6.5043C16.1882 6.73463 15.9246 6.92616 15.7287 6.78381L14.1469 5.63463C14.0593 5.57097 13.9407 5.57097 13.8531 5.63463L12.2713 6.78381C12.0754 6.92616 11.8118 6.73463 11.8866 6.5043L12.4908 4.64488C12.5243 4.54188 12.4876 4.42903 12.4 4.36537L10.8182 3.21619C10.6223 3.07384 10.723 2.76393 10.9652 2.76393H12.9203C13.0286 2.76393 13.1246 2.69419 13.1581 2.59119L13.7622 0.731762Z" fill="#E21A43"/>
<path d="M23.7622 0.731762C23.8371 0.501434 24.1629 0.501435 24.2378 0.731763L24.8419 2.59119C24.8754 2.69419 24.9714 2.76393 25.0797 2.76393H27.0348C27.277 2.76393 27.3777 3.07384 27.1818 3.21619L25.6 4.36537C25.5124 4.42903 25.4757 4.54188 25.5092 4.64488L26.1134 6.5043C26.1882 6.73463 25.9246 6.92616 25.7287 6.78381L24.1469 5.63463C24.0593 5.57097 23.9407 5.57097 23.8531 5.63463L22.2713 6.78381C22.0754 6.92616 21.8118 6.73463 21.8866 6.5043L22.4908 4.64488C22.5243 4.54188 22.4876 4.42903 22.4 4.36537L20.8182 3.21619C20.6223 3.07384 20.723 2.76393 20.9652 2.76393H22.9203C23.0286 2.76393 23.1246 2.69419 23.1581 2.59119L23.7622 0.731762Z" fill="#E21A43"/>
<path d="M33.7622 0.731762C33.8371 0.501434 34.1629 0.501435 34.2378 0.731763L34.8419 2.59119C34.8754 2.69419 34.9714 2.76393 35.0797 2.76393H37.0348C37.277 2.76393 37.3777 3.07384 37.1818 3.21619L35.6 4.36537C35.5124 4.42903 35.4757 4.54188 35.5092 4.64488L36.1134 6.5043C36.1882 6.73463 35.9246 6.92616 35.7287 6.78381L34.1469 5.63463C34.0593 5.57097 33.9407 5.57097 33.8531 5.63463L32.2713 6.78381C32.0754 6.92616 31.8118 6.73463 31.8866 6.5043L32.4908 4.64488C32.5243 4.54188 32.4876 4.42903 32.4 4.36537L30.8182 3.21619C30.6223 3.07384 30.723 2.76393 30.9652 2.76393H32.9203C33.0286 2.76393 33.1246 2.69419 33.1581 2.59119L33.7622 0.731762Z" fill="#E21A43"/>
<path d="M43.7622 0.731762C43.8371 0.501434 44.1629 0.501435 44.2378 0.731763L44.8419 2.59119C44.8754 2.69419 44.9714 2.76393 45.0797 2.76393H47.0348C47.277 2.76393 47.3777 3.07384 47.1818 3.21619L45.6 4.36537C45.5124 4.42903 45.4757 4.54188 45.5092 4.64488L46.1134 6.5043C46.1882 6.73463 45.9246 6.92616 45.7287 6.78381L44.1469 5.63463C44.0593 5.57097 43.9407 5.57097 43.8531 5.63463L42.2713 6.78381C42.0754 6.92616 41.8118 6.73463 41.8866 6.5043L42.4908 4.64488C42.5243 4.54188 42.4876 4.42903 42.4 4.36537L40.8182 3.21619C40.6223 3.07384 40.723 2.76393 40.9652 2.76393H42.9203C43.0286 2.76393 43.1246 2.69419 43.1581 2.59119L43.7622 0.731762Z" fill="#E21A43" fill-opacity="0.3"/>
<path d="M51.368 4.152C51.368 6.424 52.28 7.864 53.648 7.864V7.112C52.76 7.112 52.112 5.904 52.112 4.152C52.112 2.4 52.76 1.176 53.648 1.176V0.424C52.28 0.424 51.368 1.88 51.368 4.152ZM54.2618 3.4C54.2618 4.872 54.6698 6.08 56.1738 6.08C57.6858 6.08 58.0778 4.872 58.0778 3.4C58.0778 1.912 57.6858 0.704 56.1738 0.704C54.6698 0.704 54.2618 1.912 54.2618 3.4ZM55.0778 3.4C55.0778 2.368 55.3018 1.52 56.1738 1.52C57.0378 1.52 57.2618 2.368 57.2618 3.4C57.2618 4.432 57.0378 5.28 56.1738 5.28C55.3018 5.28 55.0778 4.432 55.0778 3.4ZM61.9219 4.28C61.9219 4.824 61.5299 5.28 60.7219 5.28C60.2659 5.28 59.8659 4.992 59.6499 4.52C59.5059 4.6 59.0979 4.832 58.9539 4.92C59.2979 5.624 59.9939 6.08 60.7219 6.08C61.9299 6.08 62.7299 5.368 62.7299 4.28C62.7299 3.16 61.9299 2.576 60.9619 2.576C60.6419 2.576 60.2179 2.688 59.9859 2.872L60.2339 1.552H62.4259V0.776H59.5699L59.1219 3.424L59.6099 3.784C60.0899 3.424 60.4499 3.312 60.8739 3.312C61.4419 3.312 61.9219 3.632 61.9219 4.28ZM65.7086 4.152C65.7086 1.88 64.7726 0.424 63.4286 0.424V1.176C64.3086 1.176 64.9646 2.4 64.9646 4.152C64.9646 5.904 64.3086 7.112 63.4286 7.112V7.864C64.7726 7.864 65.7086 6.424 65.7086 4.152Z" fill="#E21A43"/>
</svg>
