<svg width="39" height="37" viewBox="0 0 39 37" fill="none" xmlns="http://www.w3.org/2000/svg">
<path fill-rule="evenodd" clip-rule="evenodd" d="M17.3098 13.373C13.6919 10.399 10.7603 6.85728 8.55729 2.73096C8.1167 1.90908 7.09151 1.59558 6.26116 2.03617C5.43929 2.47676 5.12573 3.50201 5.56632 4.33236C7.98958 8.84843 11.1924 12.729 15.1577 15.9911C15.8779 16.5842 16.954 16.4825 17.5471 15.7623C18.1402 15.0337 18.03 13.9661 17.3098 13.373Z" fill="#E21A43"/>
<path fill-rule="evenodd" clip-rule="evenodd" d="M15.3806 1.79049C15.567 5.21356 15.7365 8.63663 15.9483 12.0597C16.0076 12.9917 16.8125 13.7034 17.7445 13.6441C18.6766 13.5848 19.3883 12.7799 19.329 11.8479C19.1172 8.43327 18.9477 5.0187 18.7613 1.59563C18.7104 0.666151 17.9055 -0.0498164 16.9735 0.00271578C16.0415 0.055248 15.3213 0.855928 15.3806 1.79049Z" fill="#E21A43"/>
<path fill-rule="evenodd" clip-rule="evenodd" d="M27.9595 2.48533C25.7905 5.75588 23.3334 8.77221 20.8593 11.8225C20.2662 12.5511 20.3763 13.6188 21.105 14.2034C21.8336 14.7965 22.9013 14.6863 23.4859 13.9577C26.0278 10.8312 28.5527 7.72157 30.7896 4.35781C31.3064 3.5783 31.0861 2.5277 30.3066 2.01085C29.5355 1.494 28.4764 1.70582 27.9595 2.48533Z" fill="#E21A43"/>
<path fill-rule="evenodd" clip-rule="evenodd" d="M36.3618 14.644C30.4816 14.9066 24.237 14.9151 18.3568 14.5423C17.4248 14.4914 16.6198 15.1947 16.5605 16.1352C16.5012 17.0672 17.2129 17.8721 18.145 17.9315C24.1438 18.3043 30.5155 18.2958 36.5143 18.0331C37.4464 17.9908 38.175 17.1943 38.1326 16.2623C38.0902 15.3303 37.2938 14.6016 36.3618 14.644Z" fill="#E21A43"/>
<path fill-rule="evenodd" clip-rule="evenodd" d="M15.1533 15.7199C18.7797 20.1597 22.5333 24.5149 25.8971 29.158C26.4478 29.9121 27.507 30.0815 28.2695 29.5308C29.0236 28.98 29.193 27.9209 28.6423 27.1668C25.2362 22.4728 21.4403 18.0669 17.7715 13.5762C17.1784 12.856 16.1108 12.7459 15.3906 13.339C14.6619 13.9321 14.5602 14.9997 15.1533 15.7199Z" fill="#E21A43"/>
<path fill-rule="evenodd" clip-rule="evenodd" d="M16.2515 17.0082C17.2005 21.6344 17.4632 26.0573 17.531 30.7428C17.5394 31.6749 18.3105 32.4205 19.2425 32.412C20.183 32.395 20.9286 31.6325 20.9116 30.692C20.8439 25.7861 20.5643 21.1684 19.573 16.3219C19.3781 15.4068 18.4884 14.8137 17.5649 15.0085C16.6498 15.1949 16.0567 16.0931 16.2515 17.0082Z" fill="#E21A43"/>
<path fill-rule="evenodd" clip-rule="evenodd" d="M16.4045 16.6356C13.6593 22.126 12.2443 28.2266 9.30418 33.5984C8.85512 34.4118 9.16008 35.4455 9.98196 35.8945C10.8038 36.3436 11.8291 36.0385 12.2782 35.2251C15.2352 29.8194 16.6671 23.685 19.4378 18.1522C19.853 17.3134 19.514 16.2966 18.6837 15.873C17.8449 15.4578 16.8282 15.7967 16.4045 16.6356Z" fill="#E21A43"/>
<path fill-rule="evenodd" clip-rule="evenodd" d="M17.9153 15.3896C12.4502 16.3555 6.99366 16.7961 1.49472 17.4485C0.562701 17.5586 -0.0981883 18.3975 0.0119599 19.3295C0.122108 20.2615 0.961007 20.9224 1.89303 20.8123C7.45128 20.1598 12.9756 19.7023 18.5084 18.7279C19.4235 18.5584 20.042 17.6772 19.8811 16.7622C19.7116 15.8386 18.8388 15.2201 17.9153 15.3896Z" fill="#E21A43"/>
<path fill-rule="evenodd" clip-rule="evenodd" d="M21.718 12.8143C20.5911 12.7634 19.5235 12.6871 18.4221 12.5262C17.49 12.3906 16.6342 13.0345 16.4987 13.9581C16.3631 14.8816 17.007 15.7459 17.9306 15.8815C19.1507 16.0594 20.3284 16.1441 21.5655 16.195C22.4975 16.2373 23.2939 15.5171 23.3278 14.5766C23.3702 13.6446 22.6501 12.8566 21.718 12.8143Z" fill="#E21A43"/>
</svg>
